nColumns=19
nRows=40
DataType=double
version=3
OpenSimVersion=4.1
endheader
time	ground_force_1_vx	ground_force_1_vy	ground_force_1_vz	ground_force_1_px	ground_force_1_py	ground_force_1_pz	ground_force_1_mx	ground_force_1_my	ground_force_1_mz	ground_force_2_vx	ground_force_2_vy	ground_force_2_vz	ground_force_2_px	ground_force_2_py	ground_force_2_pz	ground_force_2_mx	ground_force_2_my	ground_force_2_mz
2.05	-2.04086	10.9778	-0.806568	0.00321638	0	-0.000152835	0	0	0	0	0	0	0.00321638	0	-0.000152835	0	0	0
2.06	4.6243	41.9065	-4.68956	1.01503	0	-0.339001	-0	3.05666	-0	0	0	0	0.00321638	0	-0.000152835	0	0	0
2.07	19.4252	168.289	-14.1181	0.949577	0	-0.313892	-0	0.884833	-0	0	0	0	0.00321638	0	-0.000152835	0	0	0
2.08	29.353	500.302	-24.5159	0.962094	0	-0.319297	-0	0.549871	-0	0	0	0	0.00321638	0	-0.000152835	0	0	0
2.09	-4.58181	1013.31	8.1746	0.962828	0	-0.320529	-0	2.29427	-0	0	0	0	0.00321638	0	-0.000152835	0	0	0
2.1	-86.5831	1398.79	122.021	0.960271	0	-0.321457	-0	3.40889	-0	0	0	0	0.00321638	0	-0.000152835	0	0	0
2.11	-160.972	1451.66	205	0.952475	0	-0.322481	-0	1.94587	-0	0	0	0	0.00321638	0	-0.000152835	0	0	0
2.12	-200.12	1371.69	124.629	0.934231	0	-0.323089	0	-1.09764	0	0	0	0	0.00321638	0	-0.000152835	0	0	0
2.13	-197.396	1376.65	-8.35654	0.901892	0	-0.321983	0	-3.14229	0	0	0	0	0.00321638	0	-0.000152835	0	0	0
2.14	-160.832	1486.57	-22.6571	0.862047	0	-0.318827	0	-3.01928	0	0	0	0	0.00321638	0	-0.000152835	0	0	0
2.15	-111.042	1612.4	36.5442	0.826812	0	-0.315468	0	-1.91772	0	0	0	0	0.00321638	0	-0.000152835	0	0	0
2.16	-63.3663	1674.45	44.1752	0.799985	0	-0.313474	0	-1.50526	0	0	0	0	0.00321638	0	-0.000152835	0	0	0
2.17	-29.3698	1659.43	13.6164	0.777937	0	-0.312674	0	-2.08948	0	0	0	0	0.00321638	0	-0.000152835	0	0	0
2.18	-6.42197	1602.69	8.65459	0.756106	0	-0.312207	0	-2.80885	0	0	0	0	0.00321638	0	-0.000152835	0	0	0
2.19	16.9357	1530.14	19.8401	0.731705	0	-0.311589	0	-2.85729	0	0	0	0	0.00321638	0	-0.000152835	0	0	0
2.2	46.9537	1444.7	23.6882	0.70444	0	-0.310936	0	-2.20122	0	0	0	0	0.00321638	0	-0.000152835	0	0	0
2.21	80.9176	1338.34	29.118	0.676005	0	-0.310576	0	-1.45821	0	0	0	0	0.00321638	0	-0.000152835	0	0	0
2.22	113.209	1200.05	40.8707	0.648222	0	-0.310592	0	-1.28695	0	0	0	0	0.00321638	0	-0.000152835	0	0	0
2.23	135.466	1020.92	55.7248	0.621254	0	-0.31076	0	-1.71639	0	0	0	0	0.00321638	0	-0.000152835	0	0	0
2.24	137.764	800.391	70.7712	0.59284	0	-0.310776	0	-1.94262	0	0	0	0	0.00321638	0	-0.000152835	0	0	0
2.25	115.208	553.753	71.2178	0.557275	0	-0.310484	0	-0.978422	0	0	0	0	0.00321638	0	-0.000152835	0	0	0
2.26	83.189	321.878	44.1381	0.500994	0	-0.309702	-0	1.27221	-0	0	0	0	0.00321638	0	-0.000152835	0	0	0
2.27	56.3856	152.801	6.86124	0.37668	0	-0.306209	-0	3.7378	-0	0	0	0	0.00321638	0	-0.000152835	0	0	0
2.28	31.7028	58.9825	-7.86686	-0.507316	0	-0.247362	-0	5.23074	-0	0	0	0	0.00321638	0	-0.000152835	0	0	0
2.29	9.50037	22.657	-2.08765	0.00321638	0	-0.000152835	0	0	0	0	0	0	0.00321638	0	-0.000152835	0	0	0
2.3	-2.55858	11.6081	2.69997	0.00321638	0	-0.000152835	0	0	0	0	0	0	0.00321638	0	-0.000152835	0	0	0
2.31	0	0	0	0.00321638	0	-0.000152835	0	0	0	0	0	0	0.00321638	0	-0.000152835	0	0	0
2.32	0	0	0	0.00321638	0	-0.000152835	0	0	0	0	0	0	0.00321638	0	-0.000152835	0	0	0
2.33	0	0	0	0.00321638	0	-0.000152835	0	0	0	0	0	0	0.00321638	0	-0.000152835	0	0	0
2.34	0	0	0	0.00321638	0	-0.000152835	0	0	0	0	0	0	0.00321638	0	-0.000152835	0	0	0
2.35	0	0	0	0.00321638	0	-0.000152835	0	0	0	0	0	0	0.00321638	0	-0.000152835	0	0	0
2.36	0	0	0	0.00321638	0	-0.000152835	0	0	0	0	0	0	0.00321638	0	-0.000152835	0	0	0
2.37	0	0	0	0.00321638	0	-0.000152835	0	0	0	0	0	0	0.00321638	0	-0.000152835	0	0	0
2.38	0	0	0	0.00321638	0	-0.000152835	0	0	0	-0.948114	15.8576	-2.94262	0.00321638	0	-0.000152835	0	0	0
2.39	0	0	0	0.00321638	0	-0.000152835	0	0	0	-0.107701	49.3979	-5.53524	0.982703	0	-0.262824	-0	1.61947	-0
2.4	0	0	0	0.00321638	0	-0.000152835	0	0	0	2.94238	175.472	-12.6081	0.908998	0	-0.309905	-0	1.3916	-0
2.41	0	0	0	0.00321638	0	-0.000152835	0	0	0	-0.863775	485.067	-26.4866	0.914925	0	-0.298732	0	-0.390251	0
2.42	0	0	0	0.00321638	0	-0.000152835	0	0	0	-31.2418	927.144	-35.809	0.911665	0	-0.294181	0	-3.84515	0
2.43	0	0	0	0.00321638	0	-0.000152835	0	0	0	-83.1864	1233.17	-44.4737	0.904503	0	-0.291379	0	-7.31662	0
2.44	0	0	0	0.00321638	0	-0.000152835	0	0	0	-129.366	1271.93	-88.6092	0.892424	0	-0.289919	0	-8.68869	0
